<mxfile host="app.diagrams.net" modified="2023-05-08T07:45:22.946Z" agent="Mozilla/5.0 (Windows NT 10.0; Win64; x64) AppleWebKit/537.36 (KHTML, like Gecko) Chrome/112.0.0.0 Safari/537.36" etag="K028NgOjvfU3Ykahv4Qh" version="21.2.2" type="device">
  <diagram name="Page-1" id="I-mMdjhpBqKOkfsCeBSY">
    <mxGraphModel dx="1434" dy="707" grid="1" gridSize="10" guides="1" tooltips="1" connect="1" arrows="1" fold="1" page="1" pageScale="1" pageWidth="850" pageHeight="1100" math="0" shadow="0">
      <root>
        <mxCell id="0" />
        <mxCell id="1" parent="0" />
        <mxCell id="DRPoOxZggz8F0UYnlgAq-8" style="edgeStyle=orthogonalEdgeStyle;rounded=0;orthogonalLoop=1;jettySize=auto;html=1;exitX=0.5;exitY=1;exitDx=0;exitDy=0;entryX=0.5;entryY=0;entryDx=0;entryDy=0;entryPerimeter=0;endArrow=open;endFill=0;" edge="1" parent="1" source="DRPoOxZggz8F0UYnlgAq-2" target="DRPoOxZggz8F0UYnlgAq-3">
          <mxGeometry relative="1" as="geometry" />
        </mxCell>
        <mxCell id="DRPoOxZggz8F0UYnlgAq-2" value="" style="shape=ellipse;html=1;fillColor=strokeColor;strokeWidth=2;verticalLabelPosition=bottom;verticalAlignment=top;perimeter=ellipsePerimeter;" vertex="1" parent="1">
          <mxGeometry x="400" y="40" width="40" height="40" as="geometry" />
        </mxCell>
        <mxCell id="DRPoOxZggz8F0UYnlgAq-42" style="edgeStyle=orthogonalEdgeStyle;rounded=0;orthogonalLoop=1;jettySize=auto;html=1;exitX=0.5;exitY=1;exitDx=0;exitDy=0;exitPerimeter=0;entryX=0.5;entryY=0;entryDx=0;entryDy=0;entryPerimeter=0;endArrow=open;endFill=0;" edge="1" parent="1" source="DRPoOxZggz8F0UYnlgAq-3" target="DRPoOxZggz8F0UYnlgAq-5">
          <mxGeometry relative="1" as="geometry" />
        </mxCell>
        <mxCell id="DRPoOxZggz8F0UYnlgAq-3" value="Navigate to UI" style="points=[[0.25,0,0],[0.5,0,0],[0.75,0,0],[1,0.25,0],[1,0.5,0],[1,0.75,0],[0.75,1,0],[0.5,1,0],[0.25,1,0],[0,0.75,0],[0,0.5,0],[0,0.25,0]];shape=mxgraph.bpmn.task;whiteSpace=wrap;rectStyle=rounded;size=10;html=1;container=1;expand=0;collapsible=0;bpmnShapeType=call;fillColor=#fff2cc;strokeColor=#d6b656;" vertex="1" parent="1">
          <mxGeometry x="360" y="140" width="120" height="50" as="geometry" />
        </mxCell>
        <mxCell id="DRPoOxZggz8F0UYnlgAq-52" style="edgeStyle=orthogonalEdgeStyle;rounded=0;orthogonalLoop=1;jettySize=auto;html=1;exitX=0.5;exitY=1;exitDx=0;exitDy=0;exitPerimeter=0;entryX=0.5;entryY=0;entryDx=0;entryDy=0;entryPerimeter=0;endArrow=open;endFill=0;" edge="1" parent="1" source="DRPoOxZggz8F0UYnlgAq-5" target="DRPoOxZggz8F0UYnlgAq-44">
          <mxGeometry relative="1" as="geometry" />
        </mxCell>
        <mxCell id="DRPoOxZggz8F0UYnlgAq-5" value="Create new dashboard" style="points=[[0.25,0,0],[0.5,0,0],[0.75,0,0],[1,0.25,0],[1,0.5,0],[1,0.75,0],[0.75,1,0],[0.5,1,0],[0.25,1,0],[0,0.75,0],[0,0.5,0],[0,0.25,0]];shape=mxgraph.bpmn.task;whiteSpace=wrap;rectStyle=rounded;size=10;html=1;container=1;expand=0;collapsible=0;bpmnShapeType=call;fillColor=#dae8fc;strokeColor=#6c8ebf;" vertex="1" parent="1">
          <mxGeometry x="360" y="250" width="120" height="50" as="geometry" />
        </mxCell>
        <mxCell id="DRPoOxZggz8F0UYnlgAq-51" style="edgeStyle=orthogonalEdgeStyle;rounded=0;orthogonalLoop=1;jettySize=auto;html=1;exitX=0.5;exitY=1;exitDx=0;exitDy=0;exitPerimeter=0;entryX=0.5;entryY=0;entryDx=0;entryDy=0;endArrow=open;endFill=0;" edge="1" parent="1" source="DRPoOxZggz8F0UYnlgAq-44" target="DRPoOxZggz8F0UYnlgAq-45">
          <mxGeometry relative="1" as="geometry" />
        </mxCell>
        <mxCell id="DRPoOxZggz8F0UYnlgAq-44" value="Create new panel" style="points=[[0.25,0,0],[0.5,0,0],[0.75,0,0],[1,0.25,0],[1,0.5,0],[1,0.75,0],[0.75,1,0],[0.5,1,0],[0.25,1,0],[0,0.75,0],[0,0.5,0],[0,0.25,0]];shape=mxgraph.bpmn.task;whiteSpace=wrap;rectStyle=rounded;size=10;html=1;container=1;expand=0;collapsible=0;bpmnShapeType=call;fillColor=#d5e8d4;strokeColor=#82b366;" vertex="1" parent="1">
          <mxGeometry x="360" y="370" width="120" height="50" as="geometry" />
        </mxCell>
        <mxCell id="DRPoOxZggz8F0UYnlgAq-45" value="Index pattern exists?" style="rhombus;whiteSpace=wrap;html=1;fontColor=#000000;fillColor=#ffffc0;strokeColor=#000000;" vertex="1" parent="1">
          <mxGeometry x="370" y="480" width="100" height="80" as="geometry" />
        </mxCell>
        <mxCell id="DRPoOxZggz8F0UYnlgAq-46" value="no" style="edgeStyle=orthogonalEdgeStyle;html=1;align=left;verticalAlign=bottom;endArrow=open;endSize=8;strokeColor=#000000;rounded=0;entryX=0;entryY=0.5;entryDx=0;entryDy=0;entryPerimeter=0;exitX=1;exitY=0.5;exitDx=0;exitDy=0;" edge="1" source="DRPoOxZggz8F0UYnlgAq-45" parent="1" target="DRPoOxZggz8F0UYnlgAq-48">
          <mxGeometry x="-1" relative="1" as="geometry">
            <mxPoint x="560" y="520" as="targetPoint" />
            <mxPoint x="490" y="520" as="sourcePoint" />
          </mxGeometry>
        </mxCell>
        <mxCell id="DRPoOxZggz8F0UYnlgAq-47" value="yes" style="edgeStyle=orthogonalEdgeStyle;html=1;align=left;verticalAlign=top;endArrow=open;endSize=8;strokeColor=#000000;rounded=0;entryX=0.5;entryY=0;entryDx=0;entryDy=0;entryPerimeter=0;exitX=0.5;exitY=1;exitDx=0;exitDy=0;" edge="1" source="DRPoOxZggz8F0UYnlgAq-45" parent="1" target="DRPoOxZggz8F0UYnlgAq-49">
          <mxGeometry x="-1" relative="1" as="geometry">
            <mxPoint x="420" y="600" as="targetPoint" />
          </mxGeometry>
        </mxCell>
        <mxCell id="DRPoOxZggz8F0UYnlgAq-50" style="edgeStyle=orthogonalEdgeStyle;rounded=0;orthogonalLoop=1;jettySize=auto;html=1;exitX=0.5;exitY=1;exitDx=0;exitDy=0;exitPerimeter=0;entryX=1;entryY=0.5;entryDx=0;entryDy=0;entryPerimeter=0;endArrow=open;endFill=0;" edge="1" parent="1" source="DRPoOxZggz8F0UYnlgAq-48" target="DRPoOxZggz8F0UYnlgAq-49">
          <mxGeometry relative="1" as="geometry" />
        </mxCell>
        <mxCell id="DRPoOxZggz8F0UYnlgAq-48" value="Create index pattern" style="points=[[0.25,0,0],[0.5,0,0],[0.75,0,0],[1,0.25,0],[1,0.5,0],[1,0.75,0],[0.75,1,0],[0.5,1,0],[0.25,1,0],[0,0.75,0],[0,0.5,0],[0,0.25,0]];shape=mxgraph.bpmn.task;whiteSpace=wrap;rectStyle=rounded;size=10;html=1;container=1;expand=0;collapsible=0;bpmnShapeType=call;fillColor=#ffe6cc;strokeColor=#d79b00;" vertex="1" parent="1">
          <mxGeometry x="560" y="495" width="120" height="50" as="geometry" />
        </mxCell>
        <mxCell id="DRPoOxZggz8F0UYnlgAq-54" style="edgeStyle=orthogonalEdgeStyle;rounded=0;orthogonalLoop=1;jettySize=auto;html=1;exitX=0.5;exitY=1;exitDx=0;exitDy=0;exitPerimeter=0;entryX=0.5;entryY=0;entryDx=0;entryDy=0;entryPerimeter=0;endArrow=open;endFill=0;" edge="1" parent="1" source="DRPoOxZggz8F0UYnlgAq-49" target="DRPoOxZggz8F0UYnlgAq-53">
          <mxGeometry relative="1" as="geometry" />
        </mxCell>
        <mxCell id="DRPoOxZggz8F0UYnlgAq-49" value="Create visualization" style="points=[[0.25,0,0],[0.5,0,0],[0.75,0,0],[1,0.25,0],[1,0.5,0],[1,0.75,0],[0.75,1,0],[0.5,1,0],[0.25,1,0],[0,0.75,0],[0,0.5,0],[0,0.25,0]];shape=mxgraph.bpmn.task;whiteSpace=wrap;rectStyle=rounded;size=10;html=1;container=1;expand=0;collapsible=0;bpmnShapeType=call;fillColor=#e1d5e7;strokeColor=#9673a6;" vertex="1" parent="1">
          <mxGeometry x="360" y="610" width="120" height="50" as="geometry" />
        </mxCell>
        <mxCell id="DRPoOxZggz8F0UYnlgAq-53" value="" style="html=1;shape=mxgraph.sysml.actFinal;strokeWidth=2;verticalLabelPosition=bottom;verticalAlignment=top;" vertex="1" parent="1">
          <mxGeometry x="400" y="720" width="40" height="40" as="geometry" />
        </mxCell>
      </root>
    </mxGraphModel>
  </diagram>
</mxfile>
